<?xml version="1.0" standalone="no"?>
<!DOCTYPE svg PUBLIC "-//W3C//DTD SVG 20010904//EN"
 "http://www.w3.org/TR/2001/REC-SVG-20010904/DTD/svg10.dtd">
<svg version="1.0" xmlns="http://www.w3.org/2000/svg"
 width="630.000000pt" height="630.000000pt" viewBox="0 0 630.000000 630.000000"
 preserveAspectRatio="xMidYMid meet">

<g transform="translate(0.000000,630.000000) scale(0.100000,-0.100000)"
fill="#000000" stroke="none">
<path d="M2760 5973 c-36 -2 -69 -8 -74 -14 -6 -5 -31 -9 -56 -9 -25 0 -50 -4
-55 -9 -6 -5 -28 -11 -50 -14 -49 -6 -128 -24 -169 -37 -157 -50 -222 -73
-230 -81 -6 -5 -18 -9 -28 -9 -9 0 -33 -9 -53 -20 -20 -11 -41 -20 -48 -20
-23 0 -303 -148 -396 -209 -30 -20 -68 -44 -85 -55 -68 -40 -277 -215 -372
-310 -95 -95 -299 -340 -312 -375 -3 -9 -18 -32 -33 -51 -30 -38 -80 -123
-141 -239 -21 -41 -42 -79 -46 -85 -5 -6 -21 -42 -36 -81 -15 -38 -33 -81 -38
-95 -6 -14 -15 -36 -21 -50 -5 -14 -13 -33 -18 -42 -5 -10 -9 -26 -9 -36 0
-10 -4 -22 -8 -27 -15 -17 -66 -201 -84 -300 -5 -27 -13 -75 -19 -105 -27
-148 -31 -229 -31 -580 0 -377 6 -507 23 -525 5 -5 9 -25 9 -44 0 -19 4 -48 9
-65 6 -17 17 -64 26 -105 26 -120 51 -152 141 -180 41 -13 56 -12 164 9 30 6
72 14 93 17 20 3 40 9 43 14 3 5 16 9 30 9 13 0 32 4 42 9 9 5 55 21 102 36
104 32 94 28 265 110 77 37 159 80 183 96 24 16 46 29 49 29 25 0 360 258 427
329 17 17 37 31 45 31 8 0 39 23 68 52 63 62 69 51 13 -23 -22 -30 -40 -60
-40 -68 0 -52 -372 -427 -576 -581 -76 -58 -148 -110 -159 -116 -11 -6 -39
-23 -63 -38 -109 -69 -199 -115 -312 -160 -52 -21 -103 -42 -112 -47 -10 -5
-27 -9 -37 -9 -11 0 -23 -4 -26 -10 -3 -5 -16 -10 -29 -10 -13 0 -37 -7 -54
-16 -29 -14 -32 -20 -32 -59 0 -27 9 -59 21 -82 12 -21 33 -58 47 -83 116
-210 389 -552 477 -596 48 -24 172 -21 221 6 128 71 417 356 534 526 8 12 45
64 83 117 37 52 67 98 67 102 0 3 14 26 30 50 17 24 30 47 30 51 0 4 6 15 14
23 17 19 161 300 195 381 13 30 30 71 38 90 8 19 19 44 23 55 4 11 17 41 29
67 12 26 21 54 21 61 0 7 4 17 8 22 5 6 26 64 46 130 21 66 42 128 47 137 5
10 9 27 9 37 0 11 4 22 9 25 5 3 11 18 14 33 3 16 10 44 15 63 32 110 72 275
72 295 0 13 5 27 10 30 6 3 10 24 10 45 0 21 5 42 10 45 6 3 10 24 10 45 0 21
5 42 10 45 5 3 10 25 10 49 0 23 4 46 9 52 5 5 12 29 15 54 3 25 9 70 14 100
36 209 73 530 92 805 20 298 23 375 12 375 -6 0 -14 -10 -17 -22 -24 -83 -91
-252 -127 -322 -5 -10 -33 -64 -62 -120 -104 -201 -290 -450 -478 -638 -109
-109 -345 -308 -366 -308 -5 0 -17 -9 -27 -20 -10 -11 -22 -20 -28 -20 -5 0
-21 -8 -35 -19 -28 -19 -90 -55 -177 -101 -28 -14 -84 -39 -125 -54 -41 -15
-84 -31 -95 -36 -11 -4 -40 -13 -65 -20 -25 -6 -53 -16 -62 -21 -10 -5 -33 -9
-52 -9 -19 0 -38 -4 -41 -10 -3 -5 -37 -10 -74 -10 -59 0 -71 3 -90 24 -22 24
-23 30 -17 128 11 194 59 454 97 530 5 10 9 25 9 33 0 8 4 23 9 33 5 9 13 28
19 42 128 316 282 542 545 797 169 163 342 286 547 385 80 39 154 74 165 79
23 10 172 55 230 70 22 6 54 15 71 20 17 5 44 9 62 9 17 0 34 5 37 10 3 6 32
10 64 10 31 0 62 5 67 10 14 14 453 7 544 -8 175 -29 377 -80 475 -121 216
-90 467 -244 635 -387 253 -217 479 -527 594 -814 21 -52 42 -104 46 -115 5
-11 14 -38 21 -60 6 -22 15 -49 20 -60 8 -22 9 -27 37 -170 29 -145 42 -250
42 -331 0 -96 -18 -114 -113 -114 -36 0 -69 5 -72 10 -3 6 -19 10 -35 10 -16
0 -39 4 -52 9 -13 5 -43 14 -68 21 -25 7 -54 16 -65 20 -11 4 -36 14 -55 21
-37 13 -102 40 -160 67 -19 9 -75 40 -123 69 -48 29 -90 53 -92 53 -5 0 -36
23 -149 108 -78 58 -255 217 -319 285 -122 129 -337 407 -337 435 0 5 -7 15
-15 22 -7 6 -25 33 -38 58 -13 26 -39 76 -59 112 -52 97 -55 103 -66 130 -5
14 -17 41 -25 60 -9 19 -25 62 -37 95 -12 33 -25 69 -30 80 -5 11 -10 29 -12
39 -2 11 -9 21 -17 24 -12 4 -13 -16 -7 -124 11 -199 24 -379 36 -494 10 -99
16 -150 39 -330 11 -89 38 -265 51 -335 26 -132 32 -163 37 -198 3 -20 9 -40
14 -43 5 -3 9 -23 9 -44 0 -21 5 -42 10 -45 6 -3 10 -19 10 -35 0 -16 4 -39 9
-52 5 -13 16 -57 26 -98 9 -41 20 -86 25 -100 4 -14 13 -45 20 -70 7 -25 16
-54 20 -65 4 -11 13 -38 19 -60 7 -22 16 -49 21 -60 4 -11 19 -56 33 -100 30
-92 68 -197 92 -252 9 -21 21 -47 25 -58 40 -103 211 -443 264 -525 27 -41 58
-92 70 -112 31 -54 152 -220 220 -302 76 -91 276 -289 346 -343 97 -73 125
-84 208 -85 41 0 79 5 85 11 6 6 19 11 28 11 19 0 208 192 270 276 76 102 167
246 211 334 59 119 60 122 56 160 -3 30 -8 35 -48 48 -25 8 -53 18 -62 23 -10
5 -25 9 -33 9 -8 0 -23 4 -33 9 -9 5 -28 13 -42 19 -168 67 -196 80 -305 142
-194 109 -476 331 -646 507 -98 100 -229 257 -229 273 0 9 -18 39 -40 69 -56
74 -50 85 13 23 29 -29 59 -52 68 -52 8 0 33 -18 54 -41 71 -73 394 -319 420
-319 3 0 26 -13 49 -29 85 -59 421 -211 466 -211 10 0 22 -4 25 -10 3 -5 17
-10 30 -10 13 0 27 -4 30 -10 3 -5 21 -10 40 -10 19 0 36 -4 39 -9 3 -5 20
-11 38 -14 18 -4 58 -11 88 -17 109 -21 121 -22 167 -9 76 22 116 69 137 165
10 43 20 86 23 94 3 8 9 44 15 80 5 36 14 97 20 135 14 92 14 817 0 910 -36
234 -42 262 -94 440 -11 39 -25 81 -31 95 -16 42 -24 62 -53 140 -44 117 -187
394 -248 479 -17 24 -35 51 -41 60 -55 90 -251 326 -347 417 -108 102 -226
198 -318 259 -25 17 -61 42 -80 57 -19 14 -57 38 -85 54 -27 15 -66 36 -85 48
-72 41 -284 146 -296 146 -8 0 -29 9 -49 20 -20 11 -42 20 -50 20 -9 0 -23 4
-33 9 -69 35 -245 85 -347 98 -22 3 -44 9 -50 14 -5 5 -30 9 -55 9 -25 0 -51
5 -58 12 -9 9 -107 13 -375 14 -199 1 -391 -1 -427 -3z"/>
<path d="M3106 4624 c-3 -9 -6 -59 -6 -113 0 -53 -4 -101 -9 -106 -5 -6 -12
-48 -15 -95 -6 -98 -30 -305 -54 -475 -27 -182 -45 -305 -54 -355 -5 -30 -11
-75 -14 -100 -3 -25 -9 -54 -14 -65 -5 -11 -11 -38 -14 -60 -5 -44 -30 -168
-54 -270 -6 -22 -18 -76 -27 -120 -9 -44 -21 -98 -27 -120 -5 -22 -12 -53 -14
-70 -3 -16 -9 -39 -13 -50 -17 -41 -31 -92 -31 -108 0 -10 -4 -25 -9 -35 -5
-9 -15 -37 -21 -62 -7 -25 -16 -56 -20 -70 -5 -14 -16 -52 -25 -85 -9 -33 -21
-68 -26 -77 -5 -10 -9 -27 -9 -37 0 -11 -4 -23 -10 -26 -5 -3 -10 -17 -10 -30
0 -13 -4 -27 -10 -30 -5 -3 -10 -15 -10 -26 0 -10 -4 -27 -9 -37 -14 -28 -28
-62 -56 -142 -15 -41 -31 -85 -36 -97 -5 -13 -13 -33 -18 -45 -33 -86 -173
-381 -214 -453 -13 -22 -39 -69 -59 -105 -47 -87 -182 -294 -228 -350 -60 -72
-63 -82 -46 -146 8 -31 22 -64 30 -73 9 -10 16 -23 16 -29 0 -18 78 -71 124
-84 23 -6 45 -15 50 -20 6 -4 20 -8 32 -8 13 0 26 -5 29 -10 3 -6 17 -10 30
-10 13 0 26 -4 29 -9 3 -5 18 -11 33 -14 16 -3 46 -11 68 -17 98 -28 255 -59
365 -72 111 -14 642 -14 745 0 110 14 267 45 360 72 22 6 52 14 68 17 15 3 30
9 33 14 3 5 16 9 29 9 13 0 27 5 30 10 3 6 15 10 26 10 10 0 27 4 37 9 9 5 39
17 65 26 48 17 107 59 107 76 0 5 8 22 17 36 22 33 43 91 43 118 0 11 -22 47
-48 80 -43 53 -106 143 -138 197 -6 10 -17 26 -25 35 -8 10 -21 32 -29 48 -8
17 -24 46 -36 65 -61 101 -119 213 -194 375 -71 152 -77 166 -125 295 -50 133
-62 165 -76 192 -5 10 -9 27 -9 37 0 11 -4 23 -10 26 -5 3 -10 15 -10 26 0 10
-4 27 -9 37 -9 17 -48 138 -71 222 -6 25 -16 53 -21 62 -5 10 -9 29 -9 42 0
14 -4 28 -10 31 -5 3 -10 19 -10 35 0 16 -4 32 -10 35 -5 3 -10 16 -10 27 0
12 -4 35 -10 52 -5 17 -21 83 -35 146 -15 63 -31 129 -36 146 -5 17 -9 42 -9
57 0 14 -4 29 -10 32 -5 3 -10 26 -10 50 0 24 -4 47 -10 50 -5 3 -10 24 -10
45 0 21 -4 42 -10 45 -5 3 -10 26 -10 50 0 24 -4 46 -9 49 -5 3 -11 29 -14 58
-3 29 -13 98 -22 153 -9 55 -20 132 -26 170 -6 39 -15 99 -20 135 -6 36 -12
97 -15 135 -3 39 -10 74 -15 79 -5 6 -9 40 -9 76 0 36 -4 70 -9 76 -5 5 -12
45 -15 89 -2 44 -9 134 -15 200 -5 66 -10 130 -10 143 -1 25 -16 29 -25 6z"/>
</g>
</svg>
